<mxfile host="app.diagrams.net" agent="Mozilla/5.0 (Windows NT 10.0; Win64; x64) AppleWebKit/537.36 (KHTML, like Gecko) Chrome/136.0.0.0 Safari/537.36" version="27.0.8">
  <diagram name="Page-1" id="10a91c8b-09ff-31b1-d368-03940ed4cc9e">
    <mxGraphModel dx="683" dy="363" grid="1" gridSize="10" guides="1" tooltips="1" connect="1" arrows="1" fold="1" page="1" pageScale="1" pageWidth="1100" pageHeight="850" background="none" math="0" shadow="0">
      <root>
        <mxCell id="0" />
        <mxCell id="1" parent="0" />
        <mxCell id="TKL8ZdilneEBH6WkM-6K-1" value="User" style="rounded=1;whiteSpace=wrap;html=1;align=center;" vertex="1" parent="1">
          <mxGeometry x="40" y="80" width="120" height="60" as="geometry" />
        </mxCell>
        <mxCell id="TKL8ZdilneEBH6WkM-6K-2" value="App&lt;div&gt;Backend&lt;/div&gt;" style="rounded=1;whiteSpace=wrap;html=1;" vertex="1" parent="1">
          <mxGeometry x="280" y="80" width="120" height="60" as="geometry" />
        </mxCell>
        <mxCell id="TKL8ZdilneEBH6WkM-6K-31" value="" style="edgeStyle=orthogonalEdgeStyle;rounded=0;orthogonalLoop=1;jettySize=auto;html=1;" edge="1" parent="1" source="TKL8ZdilneEBH6WkM-6K-3" target="TKL8ZdilneEBH6WkM-6K-30">
          <mxGeometry relative="1" as="geometry" />
        </mxCell>
        <mxCell id="TKL8ZdilneEBH6WkM-6K-3" value="App&lt;div&gt;Database&lt;/div&gt;" style="rounded=1;whiteSpace=wrap;html=1;" vertex="1" parent="1">
          <mxGeometry x="460" y="80" width="120" height="60" as="geometry" />
        </mxCell>
        <mxCell id="TKL8ZdilneEBH6WkM-6K-33" value="" style="edgeStyle=orthogonalEdgeStyle;rounded=0;orthogonalLoop=1;jettySize=auto;html=1;" edge="1" parent="1" source="TKL8ZdilneEBH6WkM-6K-4" target="TKL8ZdilneEBH6WkM-6K-32">
          <mxGeometry relative="1" as="geometry" />
        </mxCell>
        <mxCell id="TKL8ZdilneEBH6WkM-6K-4" value="Other services" style="rounded=1;whiteSpace=wrap;html=1;" vertex="1" parent="1">
          <mxGeometry x="640" y="80" width="120" height="60" as="geometry" />
        </mxCell>
        <mxCell id="TKL8ZdilneEBH6WkM-6K-5" value="" style="endArrow=classic;html=1;rounded=0;entryX=0;entryY=0.5;entryDx=0;entryDy=0;" edge="1" parent="1" target="TKL8ZdilneEBH6WkM-6K-2">
          <mxGeometry relative="1" as="geometry">
            <mxPoint x="160" y="109.57" as="sourcePoint" />
            <mxPoint x="260" y="109.57" as="targetPoint" />
          </mxGeometry>
        </mxCell>
        <mxCell id="TKL8ZdilneEBH6WkM-6K-6" value="Trust Boundary" style="edgeLabel;resizable=0;html=1;;align=center;verticalAlign=middle;" connectable="0" vertex="1" parent="TKL8ZdilneEBH6WkM-6K-5">
          <mxGeometry relative="1" as="geometry" />
        </mxCell>
        <mxCell id="TKL8ZdilneEBH6WkM-6K-7" value="" style="endArrow=classic;html=1;rounded=0;" edge="1" parent="1">
          <mxGeometry relative="1" as="geometry">
            <mxPoint x="400" y="110" as="sourcePoint" />
            <mxPoint x="460" y="110" as="targetPoint" />
          </mxGeometry>
        </mxCell>
        <mxCell id="TKL8ZdilneEBH6WkM-6K-8" value="Label" style="edgeLabel;resizable=0;html=1;;align=center;verticalAlign=middle;" connectable="0" vertex="1" parent="TKL8ZdilneEBH6WkM-6K-7">
          <mxGeometry relative="1" as="geometry" />
        </mxCell>
        <mxCell id="TKL8ZdilneEBH6WkM-6K-9" value="" style="endArrow=classic;html=1;rounded=0;" edge="1" parent="1">
          <mxGeometry relative="1" as="geometry">
            <mxPoint x="580" y="109.57" as="sourcePoint" />
            <mxPoint x="640" y="109.57" as="targetPoint" />
          </mxGeometry>
        </mxCell>
        <mxCell id="TKL8ZdilneEBH6WkM-6K-10" value="Label" style="edgeLabel;resizable=0;html=1;;align=center;verticalAlign=middle;" connectable="0" vertex="1" parent="TKL8ZdilneEBH6WkM-6K-9">
          <mxGeometry relative="1" as="geometry" />
        </mxCell>
        <mxCell id="TKL8ZdilneEBH6WkM-6K-14" value="" style="endArrow=classic;startArrow=classic;html=1;rounded=0;exitX=0.5;exitY=1;exitDx=0;exitDy=0;" edge="1" parent="1" source="TKL8ZdilneEBH6WkM-6K-15">
          <mxGeometry width="50" height="50" relative="1" as="geometry">
            <mxPoint x="220" y="320" as="sourcePoint" />
            <mxPoint x="220" y="120" as="targetPoint" />
          </mxGeometry>
        </mxCell>
        <mxCell id="TKL8ZdilneEBH6WkM-6K-22" style="edgeStyle=orthogonalEdgeStyle;rounded=0;orthogonalLoop=1;jettySize=auto;html=1;exitX=0.5;exitY=1;exitDx=0;exitDy=0;" edge="1" parent="1" source="TKL8ZdilneEBH6WkM-6K-15" target="TKL8ZdilneEBH6WkM-6K-19">
          <mxGeometry relative="1" as="geometry" />
        </mxCell>
        <mxCell id="TKL8ZdilneEBH6WkM-6K-23" style="edgeStyle=orthogonalEdgeStyle;rounded=0;orthogonalLoop=1;jettySize=auto;html=1;exitX=0;exitY=0.5;exitDx=0;exitDy=0;" edge="1" parent="1" source="TKL8ZdilneEBH6WkM-6K-15">
          <mxGeometry relative="1" as="geometry">
            <mxPoint x="120" y="175.26086956521738" as="targetPoint" />
          </mxGeometry>
        </mxCell>
        <mxCell id="TKL8ZdilneEBH6WkM-6K-15" value="Steal or manipulate Data" style="rounded=1;whiteSpace=wrap;html=1;" vertex="1" parent="1">
          <mxGeometry x="160" y="160" width="110" height="30" as="geometry" />
        </mxCell>
        <mxCell id="TKL8ZdilneEBH6WkM-6K-18" value="Intercept Communication" style="rounded=1;whiteSpace=wrap;html=1;" vertex="1" parent="1">
          <mxGeometry x="60" y="210" width="100" height="40" as="geometry" />
        </mxCell>
        <mxCell id="TKL8ZdilneEBH6WkM-6K-19" value="Reverse Eng. App" style="rounded=1;whiteSpace=wrap;html=1;" vertex="1" parent="1">
          <mxGeometry x="175" y="235" width="80" height="40" as="geometry" />
        </mxCell>
        <mxCell id="TKL8ZdilneEBH6WkM-6K-20" value="" style="endArrow=none;html=1;rounded=0;entryX=0.168;entryY=1.056;entryDx=0;entryDy=0;entryPerimeter=0;exitX=0.637;exitY=0.013;exitDx=0;exitDy=0;exitPerimeter=0;" edge="1" parent="1" source="TKL8ZdilneEBH6WkM-6K-18" target="TKL8ZdilneEBH6WkM-6K-15">
          <mxGeometry width="50" height="50" relative="1" as="geometry">
            <mxPoint x="140" y="250" as="sourcePoint" />
            <mxPoint x="190" y="200" as="targetPoint" />
          </mxGeometry>
        </mxCell>
        <mxCell id="TKL8ZdilneEBH6WkM-6K-25" value="Inject malicious Input" style="rounded=1;whiteSpace=wrap;html=1;" vertex="1" parent="1">
          <mxGeometry x="30" y="160" width="90" height="30" as="geometry" />
        </mxCell>
        <mxCell id="TKL8ZdilneEBH6WkM-6K-27" value="" style="edgeStyle=orthogonalEdgeStyle;rounded=0;orthogonalLoop=1;jettySize=auto;html=1;" edge="1" parent="1" source="TKL8ZdilneEBH6WkM-6K-26" target="TKL8ZdilneEBH6WkM-6K-2">
          <mxGeometry relative="1" as="geometry" />
        </mxCell>
        <mxCell id="TKL8ZdilneEBH6WkM-6K-29" value="" style="edgeStyle=orthogonalEdgeStyle;rounded=0;orthogonalLoop=1;jettySize=auto;html=1;" edge="1" parent="1" source="TKL8ZdilneEBH6WkM-6K-26" target="TKL8ZdilneEBH6WkM-6K-28">
          <mxGeometry relative="1" as="geometry" />
        </mxCell>
        <mxCell id="TKL8ZdilneEBH6WkM-6K-26" value="Gain unauthorized Access" style="rounded=1;whiteSpace=wrap;html=1;" vertex="1" parent="1">
          <mxGeometry x="287.5" y="170" width="105" height="40" as="geometry" />
        </mxCell>
        <mxCell id="TKL8ZdilneEBH6WkM-6K-28" value="Abuse Weak auth.&lt;div&gt;Inject Via input fields&lt;/div&gt;&lt;div&gt;DB misconf.&lt;/div&gt;&lt;div&gt;Bypass filters&lt;/div&gt;" style="ellipse;whiteSpace=wrap;html=1;rounded=1;" vertex="1" parent="1">
          <mxGeometry x="270" y="290" width="140" height="120" as="geometry" />
        </mxCell>
        <mxCell id="TKL8ZdilneEBH6WkM-6K-30" value="&lt;div&gt;&lt;br&gt;&lt;/div&gt;Exploit insecure API endpoints" style="rhombus;whiteSpace=wrap;html=1;rounded=1;" vertex="1" parent="1">
          <mxGeometry x="445" y="210" width="150" height="90" as="geometry" />
        </mxCell>
        <mxCell id="TKL8ZdilneEBH6WkM-6K-32" value="1. Manipulate/ Access data from external services&lt;div&gt;2.Call external API without Auth.&lt;/div&gt;" style="whiteSpace=wrap;html=1;rounded=1;" vertex="1" parent="1">
          <mxGeometry x="620" y="220" width="160" height="100" as="geometry" />
        </mxCell>
      </root>
    </mxGraphModel>
  </diagram>
</mxfile>
